<?xml version="1.0" encoding="utf-8"?>
<!-- Generator: Adobe Illustrator 24.1.3, SVG Export Plug-In . SVG Version: 6.00 Build 0)  -->
<svg version="1.1" id="Слой_1" xmlns="http://www.w3.org/2000/svg" xmlns:xlink="http://www.w3.org/1999/xlink" x="0px" y="0px"
	 viewBox="0 0 400 400" style="enable-background:new 0 0 400 400;" xml:space="preserve">
<style type="text/css">
	.st0{fill:#089E9A;}
	.st1{fill:#1B9696;}
	.st2{fill:#05C2C9;}
	.st3{fill:#139E9A;}
	.st4{fill:#186B63;}
</style>
<polygon class="st0" points="2.6,235.6 143.6,128.7 257.4,128.7 398,235.6 225.7,386.8 179.5,386.8 "/>
<path class="st1" d="M2.3,235.6c0-214.5,0-214.5,0-214.5C49.4,57,96.5,92.8,143.6,128.7C96.5,164.3,49.4,200,2.3,235.6z"/>
<path class="st1" d="M397.7,235.5V21.6C350.9,57.3,304.2,93,257.4,128.7C304.2,164.3,350.9,199.9,397.7,235.5z"/>
<path class="st2" d="M398,235.6c-46.9-35.6-93.7-71.3-140.6-106.9c-37.9,0-75.9,0-113.8,0l-0.1,0.1
	C104.5,158.3,41.2,206.1,2.3,235.6C134.2,235.6,266.1,235.6,398,235.6z"/>
<path class="st3" d="M2.6,235.6h95.2h29.4h142.3h30.4H398c-57,50-114,100.1-171,150.1c-2.3,1.9-11.2,8.9-24.5,8.8
	c-13.1,0-21.9-6.9-24.2-8.8C119.7,335.7,61.1,285.7,2.6,235.6z"/>
<polygon class="st4" points="228.3,263.9 303.8,212.9 300.9,235.5 297.9,257.1 "/>
<polygon class="st4" points="93.8,212.9 99.7,257.1 169.4,263.9 "/>
</svg>
